/* XPM */
static char *_f67c362f44f45d58a2a4bc96c73a647sGXYUbxDPc2u2Rdy[] = {
/* columns rows colors chars-per-pixel */
"32 32 6 1 ",
"  c None",
". c #151D28",
"X c #19332D",
"o c #25562E",
"O c #468232",
"+ c #75A743",
/* pixels */
"                                ",
"                                ",
"                                ",
"                                ",
"                                ",
"                                ",
"             ++                 ",
"             +++   O            ",
"             O++o O             ",
"         ++ XooOXo++ O          ",
"         +++ooXOX+++Oo++        ",
"      ++oO+Oo++XXO+oo+++ OO     ",
"   OO +++ooOX+++XOXXoO+OoO      ",
"    ooo++oXXXX+OXOXXXOoo++oOO   ",
"  o++oo+OoX++XXOXX++XXo+++OOoo  ",
"OOoo++oXOX+++oXXXX+++X+++OooooOO",
"OoOoXOoXOXO+Xo++XXo+OX++OX++oOOX",
"XooXooooXXOXX+++o++XOXOoX+++OooX",
"XXXoooOOooXXXO+o+++XXXOXoOOoOXXX",
"XooXoooOooOOXOXXO+XXoXXXoOXoX.XX",
"XoXoooXooOOooXXXOXoooOOooXXXX..X",
"XXXoXXXoXOooOOoXXoOOoOooXXX.XX..",
"XXXXXXXXXXooOooOOooOoooXX.X..X..",
"XXXXXXXXXoooooooOOoXXXXXX.......",
"X.XXXXXXXoXXXooXooXX..XX........",
"  X.XXXXXXXXooXXoXXX...X......  ",
"    X.XXXXXXoXXXX.XX........    ",
"      ..XXXXXXXXXX........      ",
"        ..XXXXXXX.......        ",
"          ..XXXX......          ",
"            ..XX....            ",
"              ....              "
};
